<svg xmlns="http://www.w3.org/2000/svg" viewBox="0 0 352.26 66.02"><defs><style>.cls-1{fill:#17434a;}.cls-2{fill:#5dc6cb;}.cls-3{fill:#2a98a0;}</style></defs><g id="Слой_2" data-name="Слой 2"><g id="Layer_1" data-name="Layer 1"><path class="cls-1" d="M64.73,47.12h2.4v6.13h6.78V47.12h2.4v14.6h-2.4V55.38H67.13v6.34h-2.4Z"/><path class="cls-1" d="M78.35,56.38a5.45,5.45,0,1,1,10.89,0,5.45,5.45,0,1,1-10.89,0Zm8.6,0c0-2.06-1.25-3.54-3.15-3.54s-3.13,1.48-3.13,3.54,1.23,3.55,3.13,3.55S87,58.45,87,56.38Z"/><path class="cls-1" d="M91.06,61.72V51h4.65c2.78,0,4.15,1,4.15,2.84A2.2,2.2,0,0,1,98,56.2a2.33,2.33,0,0,1,2.26,2.46c0,2.06-1.5,3.06-4.45,3.06Zm2.21-6.21h2.5c1.25,0,1.82-.52,1.82-1.38s-.57-1.38-1.82-1.38h-2.5Zm0,4.5H96c1.27,0,2-.46,2-1.41s-.71-1.47-2-1.47H93.27Z"/><path class="cls-1" d="M102,61.72V51h2.25v3.32h2.49c2.69,0,4.27,1.38,4.27,3.69s-1.58,3.67-4.27,3.67Zm2.25-1.79h2.11c1.52,0,2.36-.69,2.36-1.88s-.84-1.9-2.36-1.9h-2.11Zm8.33,1.79V51h2.25V61.72Z"/><path class="cls-1" d="M116.68,56.4c0-3.29,2.1-5.48,5.25-5.48A4.88,4.88,0,0,1,127.15,56a6.29,6.29,0,0,1-.06.85H119V57a2.87,2.87,0,0,0,3,3,2.56,2.56,0,0,0,2.69-1.87H127a4.6,4.6,0,0,1-4.82,3.71A5.11,5.11,0,0,1,116.68,56.4Zm8.13-1.18A2.67,2.67,0,0,0,122,52.73a2.75,2.75,0,0,0-2.83,2.49Z"/><path class="cls-1" d="M143.59,58.64c0,2-1.86,3.21-4.88,3.21-3.21,0-4.53-1.29-4.63-3.57h2.27c.19,1.19.82,1.84,2.38,1.84s2.57-.59,2.57-1.57-.69-1.35-1.92-1.35h-1.67V55.47h1.52c1.17,0,1.84-.44,1.84-1.42s-.82-1.38-2.24-1.38-2.23.65-2.42,1.71h-2.27c.13-2.06,1.82-3.46,4.76-3.46s4.46,1.19,4.46,3a2.24,2.24,0,0,1-2,2.3A2.31,2.31,0,0,1,143.59,58.64Z"/><path class="cls-1" d="M152.37,51h2.26v10.5c0,2.58-1.51,4.48-5.07,4.48-2.67,0-4.49-1.23-4.68-3.61h2.3a2.31,2.31,0,0,0,2.57,1.78,2.4,2.4,0,0,0,2.64-2.65V60.1a3.64,3.64,0,0,1-3.23,1.67c-2.27,0-4.25-1.19-4.25-4.8V51h2.27v5.7c0,2,.85,3.07,2.48,3.07s2.71-1.3,2.71-3.47Z"/><path class="cls-1" d="M167.14,56.74c0,2.94-2.06,5.11-5.4,5.11s-5.32-1.94-5.32-6.15c0-5.49,1.42-7.66,6.11-8.24l3.72-.46v2l-3.2.4c-3.27.41-4.21,1.21-4.56,4a5,5,0,0,1,8.65,3.28Zm-2.29.1a3,3,0,0,0-3-3.17,2.94,2.94,0,0,0-3.1,3,3.07,3.07,0,1,0,6.13.16Z"/><path class="cls-1" d="M169,61.72V51h2.25v3.32h2.48c2.7,0,4.28,1.38,4.28,3.69s-1.58,3.67-4.28,3.67Zm2.25-1.79h2.11c1.52,0,2.36-.69,2.36-1.88s-.84-1.9-2.36-1.9h-2.11Zm8.33,1.79V51h2.25V61.72Z"/><path class="cls-1" d="M189.57,61.72V51h2.19v7.41L197.52,51h2V61.72h-2.19V54.3l-5.78,7.42Z"/><path class="cls-1" d="M214.61,51h2.25v10.5c0,2.58-1.5,4.48-5.06,4.48-2.68,0-4.49-1.23-4.68-3.61h2.3A2.3,2.3,0,0,0,212,64.19a2.41,2.41,0,0,0,2.65-2.65V60.1a3.65,3.65,0,0,1-3.23,1.67c-2.28,0-4.26-1.19-4.26-4.8V51h2.28v5.7c0,2,.85,3.07,2.48,3.07s2.71-1.3,2.71-3.47Z"/><path class="cls-1" d="M217.49,61.72v-2h.38c1.1,0,1.54-.69,1.54-3.56V51h8.49V61.72h-2.25V53h-4.11v3.23c0,4.23-1.09,5.46-3.32,5.46Z"/><path class="cls-1" d="M230.11,61.72V51h2.25v3.32h2.49c2.69,0,4.27,1.38,4.27,3.69s-1.58,3.67-4.27,3.67Zm2.25-1.79h2.11c1.52,0,2.36-.69,2.36-1.88s-.84-1.9-2.36-1.9h-2.11Zm8.33,1.79V51h2.25V61.72Z"/><path class="cls-1" d="M255.58,56.74c0,2.94-2.06,5.11-5.4,5.11s-5.32-1.94-5.32-6.15c0-5.49,1.42-7.66,6.11-8.24l3.72-.46v2l-3.2.4c-3.27.41-4.21,1.21-4.56,4a5,5,0,0,1,8.65,3.28Zm-2.29.1a3,3,0,0,0-3-3.17,2.94,2.94,0,0,0-3.1,3,3.07,3.07,0,1,0,6.13.16Z"/><path class="cls-1" d="M257.4,61.72V51h2.25v4.28h2L264.72,51h2.52l-3.69,5.09,4,5.59h-2.67l-3.22-4.42h-2v4.42Z"/><path class="cls-1" d="M276.67,51h2V61.72h-2l-.25-1.62a4.11,4.11,0,0,1-3.48,1.75c-2.9,0-5.05-2-5.05-5.47s2.15-5.46,5.05-5.46a4,4,0,0,1,3.48,1.69Zm-.27,5.39c0-2.11-1.23-3.59-3.11-3.59s-3.1,1.46-3.1,3.54,1.23,3.57,3.1,3.57S276.4,58.49,276.4,56.43Z"/><path class="cls-1" d="M286,56.4a5.12,5.12,0,0,1,5.37-5.48,4.57,4.57,0,0,1,4.9,3.94h-2.36a2.47,2.47,0,0,0-2.59-2c-1.81,0-3,1.46-3,3.56s1.19,3.53,3,3.53a2.46,2.46,0,0,0,2.57-2h2.38a4.64,4.64,0,0,1-5,3.94C288.09,61.85,286,59.74,286,56.4Z"/><path class="cls-1" d="M308.78,56.38c0,3.3-2.12,5.47-5,5.47a4,4,0,0,1-3.47-1.63V65.9H298V51h2l.27,1.59a4.19,4.19,0,0,1,3.49-1.71C306.66,50.92,308.78,53,308.78,56.38Zm-2.29,0c0-2.1-1.25-3.54-3.13-3.54s-3.11,1.44-3.11,3.5S301.48,60,303.36,60,306.49,58.47,306.49,56.38Z"/><path class="cls-1" d="M319,51h2V61.72h-2l-.26-1.62a4.1,4.1,0,0,1-3.48,1.75c-2.9,0-5.05-2-5.05-5.47s2.15-5.46,5.05-5.46a4,4,0,0,1,3.48,1.69Zm-.28,5.39c0-2.11-1.23-3.59-3.1-3.59s-3.11,1.46-3.11,3.54S313.75,60,315.63,60,318.73,58.49,318.73,56.43Z"/><path class="cls-1" d="M332.19,58.64c0,2-1.86,3.21-4.88,3.21-3.21,0-4.53-1.29-4.63-3.57H325c.19,1.19.82,1.84,2.38,1.84s2.57-.59,2.57-1.57-.69-1.35-1.92-1.35h-1.67V55.47h1.52c1.17,0,1.84-.44,1.84-1.42s-.82-1.38-2.24-1.38-2.23.65-2.42,1.71h-2.27c.13-2.06,1.82-3.46,4.76-3.46s4.46,1.19,4.46,3a2.24,2.24,0,0,1-2,2.3A2.31,2.31,0,0,1,332.19,58.64Z"/><path class="cls-1" d="M341,51h2.26v10.5c0,2.58-1.51,4.48-5.07,4.48-2.67,0-4.49-1.23-4.68-3.61h2.3a2.31,2.31,0,0,0,2.56,1.78A2.41,2.41,0,0,0,341,61.54V60.1a3.64,3.64,0,0,1-3.23,1.67c-2.27,0-4.26-1.19-4.26-4.8V51h2.28v5.7c0,2,.85,3.07,2.48,3.07s2.71-1.3,2.71-3.47Z"/><path class="cls-2" d="M40.65,7.53A4.51,4.51,0,0,0,36.13,12H28.6a12,12,0,0,1,24.09,0H45.16A4.51,4.51,0,0,0,40.65,7.53Z"/><path class="cls-2" d="M173.19,29.25V24.12h16.06v5.13Z"/><path class="cls-2" d="M210.62,16.57h5.44V39.13h-5.49L210.05,36a8.54,8.54,0,0,1-6.94,3.38c-6.05,0-10.48-4.39-10.48-11.54,0-7,4.43-11.54,10.44-11.54A8.3,8.3,0,0,1,210,19.56ZM210,27.89c0-3.86-2.11-6.53-5.49-6.53s-5.53,2.67-5.53,6.53,2.15,6.45,5.53,6.45S210,31.71,210,27.89Z"/><path class="cls-2" d="M220,10.25h6.18v6.32h5.14V21.8h-5.14v9.87c0,1.58.62,2.24,2.2,2.24h3.2v5.22h-5.13q-6.45,0-6.45-6.45Z"/><path class="cls-2" d="M233.35,29.25V24.12h16.06v5.13Z"/><path class="cls-3" d="M45.16,21.08h-9a13.55,13.55,0,0,1-27.1,0H0a22.58,22.58,0,0,0,45.16,0Z"/><path class="cls-3" d="M69.11,31.62c.22,2,1.93,3.34,5,3.34,2.59,0,4.17-.83,4.17-2.41,0-1.85-1.53-2-5.17-2.46-5.27-.62-9.35-1.8-9.35-6.45,0-4.48,3.9-7.42,9.7-7.37,6,0,10.22,2.67,10.53,7.28H78c-.17-1.8-1.88-2.9-4.38-2.9s-4,.88-4,2.33c0,1.71,1.93,1.89,5.18,2.28,5.18.53,9.48,1.71,9.48,6.8,0,4.48-4.21,7.33-10.27,7.33-6.27,0-10.53-2.94-10.79-7.77Z"/><path class="cls-3" d="M122.86,26.18v13h-6.19V26.53c0-3.37-1.23-5.13-3.9-5.13s-4.48,2-4.48,5.4V39.13H102.1V26.53c0-3.37-1.23-5.13-3.95-5.13s-4.43,2.06-4.43,5.44V39.13H87.54V16.57h5.39l.57,2.81a7.9,7.9,0,0,1,6.63-3.07,6.91,6.91,0,0,1,6.76,3.82,8.67,8.67,0,0,1,7.63-3.82C119.17,16.31,122.86,18.94,122.86,26.18Z"/><path class="cls-3" d="M126.28,10.69a3.6,3.6,0,1,1,3.6,3.47A3.49,3.49,0,0,1,126.28,10.69Zm.48,5.88H133V39.13h-6.23Z"/><path class="cls-3" d="M137.25,8.41h6.19V39.13h-6.19Z"/><path class="cls-3" d="M146.86,27.89c0-7,4.61-11.58,11.58-11.58,6.76,0,11.33,4.21,11.41,10.84a11.73,11.73,0,0,1-.17,2.1H153.31v.31a5,5,0,0,0,5.31,5.14c2.5,0,4.26-1.1,4.78-3.21h6.1c-.7,4.39-4.61,7.9-10.62,7.9C151.38,39.39,146.86,34.87,146.86,27.89Zm16.76-2.67a5.16,5.16,0,0,0-10.18,0Z"/><path class="cls-3" d="M252.78,27.85c0-6.93,4.7-11.54,11.9-11.54s11.89,4.61,11.89,11.54-4.7,11.54-11.89,11.54S252.78,34.78,252.78,27.85Zm17.51,0c0-3.82-2.15-6.49-5.61-6.49S259.1,24,259.1,27.85s2.11,6.49,5.58,6.49S270.29,31.67,270.29,27.85Z"/><path class="cls-3" d="M279.59,39.13V26.62c0-7.72,4.17-10.31,10.89-10.31s10.88,2.59,10.88,10.31V39.13h-6.19V27.24c0-3.82-1-5.84-4.69-5.84s-4.7,2-4.7,5.84V39.13Z"/><path class="cls-3" d="M304.3,27.85c0-7,4.56-11.54,11.71-11.54,6.15,0,10,3.33,10.84,8.69H320.4a4.33,4.33,0,0,0-4.47-3.64c-3.25,0-5.31,2.67-5.31,6.49s2.06,6.49,5.31,6.49a4.31,4.31,0,0,0,4.47-3.73h6.5c-.88,5.4-5,8.78-11.1,8.78C308.64,39.39,304.3,35,304.3,27.85Z"/><path class="cls-3" d="M329.27,27.89c0-7,4.6-11.58,11.58-11.58,6.76,0,11.32,4.21,11.41,10.84a11.76,11.76,0,0,1-.18,2.1H335.72v.31A5,5,0,0,0,341,34.7c2.5,0,4.25-1.1,4.78-3.21h6.1c-.7,4.39-4.61,7.9-10.62,7.9C333.78,39.39,329.27,34.87,329.27,27.89ZM346,25.22a5.16,5.16,0,0,0-10.18,0Z"/></g></g></svg>